# xmcd
#
# Track frame offsets:
#	150
#	17852
#	30762
#	42327
#	56879
#	69418
#	82998
#	101381
#	116385
#	129140
#	145425
#	160066
#	179346
#	188579
#	201930
#	217988
#	232849
#	248538
#	264669
#	283053
#	293856
#	307061
#
# Disc length: 4282 seconds
#
# Revision: 0
# Processed by: cddbd v1.5.2PL0 Copyright (c) Steve Scherf et al.
# Submitted via: audiograbber 1.83.01
#
DISCID=2f10b816
DTITLE=George Strait - 22 More Hits
DYEAR=2007
DGENRE=Country
TTITLE0=How 'Bout Them Cowgirls
TTITLE1=Amarillo By Morning
TTITLE2=The Fireman
TTITLE3=Gone As A Girl Can Get
TTITLE4=When Did You Stop Loving Me
TTITLE5=Marina Del Rey
TTITLE6=Desperately
TTITLE7=The Cowboy Rides Away
TTITLE8=Lovebug
TTITLE9=Cowboys Like Us
TTITLE10=She Let Herself Go
TTITLE11=You'll Be There
TTITLE12=Don't Make Me Come Over There And Love You
TTITLE13=What Do You Say To That
TTITLE14=Drinking Champagne
TTITLE15=You're Something Special To Me
TTITLE16=Meanwhile
TTITLE17=Adalida
TTITLE18=If You Can Do Anything Else
TTITLE19=Unwound
TTITLE20=If You're Thinking You Want A Stranger (There's One Coming Home)
TTITLE21=Overnight Success
EXTD=
EXTT0=
EXTT1=
EXTT2=
EXTT3=
EXTT4=
EXTT5=
EXTT6=
EXTT7=
EXTT8=
EXTT9=
EXTT10=
EXTT11=
EXTT12=
EXTT13=
EXTT14=
EXTT15=
EXTT16=
EXTT17=
EXTT18=
EXTT19=
EXTT20=
EXTT21=
PLAYORDER=
